<svg width="129" height="88" viewBox="0 0 129 88" fill="none" xmlns="http://www.w3.org/2000/svg">
<path fill-rule="evenodd" clip-rule="evenodd" d="M37.4267 66.8176H29.306C29.306 66.8176 28.7198 57.4397 15.2391 57.4397C1.75837 57.4397 1.14441e-05 67.4037 1.14441e-05 67.4037H12.8946V77.3677H1.14441e-05C1.14441e-05 77.3677 3.51673 87.9179 15.2391 87.9179C26.9615 87.9179 29.306 77.9538 29.306 77.9538H52.2111L37.4267 66.8176ZM77.6291 77.9538H99.6403C99.6403 77.9538 101.985 87.9179 113.707 87.9179C125.429 87.9179 128.946 77.3677 128.946 77.3677H116.052V67.4037H128.946C128.946 67.4037 127.188 57.4397 113.707 57.4397C100.226 57.4397 99.6403 66.8176 99.6403 66.8176H92.0294L77.6291 77.9538ZM43.2718 66.8176H64.4731V77.9538H58.0561L43.2718 66.8176ZM86.2808 66.8176L71.8804 77.9538H64.4731V66.8176H86.2808Z" fill="#FF3F4A"/>
<path d="M50.4062 26.9615L37.5116 0L19.9281 49.234L65.0592 83.2289L109.018 49.234L91.4346 0L78.54 26.9615H64.4731H50.4062Z" fill="url(#paint0_linear_9_238)"/>
<defs>
<linearGradient id="paint0_linear_9_238" x1="64.4731" y1="0" x2="64.4731" y2="83.2289" gradientUnits="userSpaceOnUse">
<stop stop-color="#FEB751"/>
<stop offset="0.484375" stop-color="#FE6D38"/>
<stop offset="1" stop-color="#FF3F4A"/>
</linearGradient>
</defs>
</svg>
