<svg height="48" viewBox="0 0 311 88" fill="none" xmlns="http://www.w3.org/2000/svg">
  <defs>
    <linearGradient id="simplus-logo-gradient" x1="65.0346" y1="0" x2="65.0346" y2="83.2289"
      gradientUnits="userSpaceOnUse">
      <stop stop-color="hsl(354, 70%, 67%)" />
      <stop offset="0.484375" stop-color="hsl(340, 67%, 55%)" />
      <stop offset="1" stop-color="hsl(0, 75%, 48%)" />
    </linearGradient>
  </defs>
  <path
    d="M37.9882 66.8176H29.8674C29.8674 66.8176 29.2813 57.4397 15.8006 57.4397C2.31982 57.4397 0.561462 67.4037 0.561462 67.4037H13.4561V77.3677H0.561462C0.561462 77.3677 4.07818 87.9179 15.8006 87.9179C27.5229 87.9179 29.8674 77.9538 29.8674 77.9538H52.7725L37.9882 66.8176ZM78.1905 77.9538H100.202C100.202 77.9538 102.546 87.9179 114.269 87.9179C125.991 87.9179 129.508 77.3677 129.508 77.3677H116.613V67.4037H129.508C129.508 67.4037 127.749 57.4397 114.269 57.4397C100.788 57.4397 100.202 66.8176 100.202 66.8176H92.5908L78.1905 77.9538ZM43.8332 66.8176H65.0346V77.9538H58.6176L43.8332 66.8176ZM86.8422 66.8176L72.4419 77.9538H65.0346V66.8176H86.8422Z"
    fill="url(#simplus-logo-gradient)" />
  <path
    d="M50.9677 26.9615L38.0731 0L20.4895 49.234L65.6207 83.2289L109.58 49.234L91.9961 0L79.1014 26.9615H65.0346H50.9677Z"
    fill="url(#simplus-logo-gradient)" />
  <path
    d="M166.198 50.9718C164.098 50.9718 162.085 50.6967 160.159 50.1465C158.233 49.5714 156.683 48.8336 155.508 47.9333L157.571 43.3569C158.696 44.1572 160.022 44.8199 161.547 45.345C163.097 45.8452 164.66 46.0953 166.236 46.0953C167.436 46.0953 168.399 45.9827 169.124 45.7577C169.875 45.5076 170.425 45.17 170.775 44.7449C171.125 44.3197 171.3 43.8321 171.3 43.2819C171.3 42.5817 171.025 42.0315 170.475 41.6314C169.925 41.2063 169.199 40.8687 168.299 40.6186C167.399 40.3435 166.399 40.0934 165.298 39.8683C164.223 39.6183 163.135 39.3182 162.035 38.9681C160.959 38.618 159.972 38.1678 159.071 37.6176C158.171 37.0675 157.433 36.3423 156.858 35.442C156.308 34.5417 156.033 33.3913 156.033 31.9909C156.033 30.4904 156.433 29.1275 157.233 27.9021C158.058 26.6518 159.284 25.6639 160.909 24.9387C162.56 24.1885 164.623 23.8134 167.099 23.8134C168.749 23.8134 170.375 24.0134 171.975 24.4136C173.576 24.7887 174.989 25.3639 176.214 26.1391L174.338 30.753C173.113 30.0528 171.888 29.5401 170.662 29.215C169.437 28.8649 168.237 28.6899 167.061 28.6899C165.886 28.6899 164.923 28.8274 164.173 29.1025C163.423 29.3776 162.885 29.7402 162.56 30.1903C162.235 30.6155 162.072 31.1156 162.072 31.6908C162.072 32.366 162.347 32.9162 162.897 33.3413C163.448 33.7414 164.173 34.0665 165.073 34.3166C165.973 34.5667 166.961 34.8168 168.037 35.0669C169.137 35.3169 170.225 35.6045 171.3 35.9296C172.4 36.2547 173.401 36.6924 174.301 37.2425C175.201 37.7927 175.926 38.5179 176.477 39.4182C177.052 40.3185 177.339 41.4563 177.339 42.8318C177.339 44.3072 176.927 45.6576 176.102 46.883C175.276 48.1084 174.038 49.0962 172.388 49.8464C170.762 50.5967 168.699 50.9718 166.198 50.9718Z"
    fill="url(#simplus-logo-gradient)" />
  <path
    d="M181.079 50.5216V30.3404H186.931V50.5216H181.079ZM184.005 27.527C182.93 27.527 182.054 27.2144 181.379 26.5892C180.704 25.964 180.366 25.1888 180.366 24.2635C180.366 23.3382 180.704 22.563 181.379 21.9378C182.054 21.3126 182.93 21 184.005 21C185.08 21 185.956 21.3001 186.631 21.9003C187.306 22.4755 187.644 23.2257 187.644 24.151C187.644 25.1263 187.306 25.939 186.631 26.5892C185.981 27.2144 185.105 27.527 184.005 27.527Z"
    fill="url(#simplus-logo-gradient)" />
  <path
    d="M218.207 30.0403C219.808 30.0403 221.221 30.3654 222.446 31.0156C223.697 31.6408 224.672 32.6161 225.372 33.9415C226.097 35.2419 226.46 36.9174 226.46 38.9681V50.5216H220.608V39.8683C220.608 38.2428 220.271 37.0425 219.595 36.2672C218.92 35.492 217.97 35.1044 216.744 35.1044C215.894 35.1044 215.131 35.3044 214.456 35.7046C213.781 36.0797 213.256 36.6548 212.881 37.4301C212.506 38.2053 212.318 39.1931 212.318 40.3935V50.5216H206.466V39.8683C206.466 38.2428 206.129 37.0425 205.453 36.2672C204.803 35.492 203.865 35.1044 202.64 35.1044C201.79 35.1044 201.027 35.3044 200.352 35.7046C199.677 36.0797 199.152 36.6548 198.776 37.4301C198.401 38.2053 198.214 39.1931 198.214 40.3935V50.5216H192.362V30.3404H197.951V35.8546L196.901 34.2416C197.601 32.8662 198.589 31.8284 199.864 31.1281C201.165 30.4029 202.64 30.0403 204.291 30.0403C206.141 30.0403 207.754 30.5154 209.13 31.4657C210.53 32.391 211.455 33.8165 211.905 35.7421L209.842 35.1794C210.518 33.6039 211.593 32.3535 213.068 31.4282C214.569 30.5029 216.282 30.0403 218.207 30.0403Z"
    fill="url(#simplus-logo-gradient)" />
  <path
    d="M243.634 50.8217C241.933 50.8217 240.445 50.4466 239.17 49.6964C237.895 48.9462 236.894 47.8083 236.169 46.2828C235.469 44.7323 235.119 42.7817 235.119 40.431C235.119 38.0553 235.456 36.1047 236.132 34.5792C236.807 33.0537 237.782 31.9159 239.057 31.1656C240.333 30.4154 241.858 30.0403 243.634 30.0403C245.534 30.0403 247.235 30.4779 248.735 31.3532C250.261 32.2035 251.461 33.4038 252.337 34.9543C253.237 36.5048 253.687 38.3304 253.687 40.431C253.687 42.5567 253.237 44.3947 252.337 45.9452C251.461 47.4957 250.261 48.6961 248.735 49.5463C247.235 50.3966 245.534 50.8217 243.634 50.8217ZM231.705 57.7989V30.3404H237.294V34.4667L237.182 40.4685L237.557 46.4329V57.7989H231.705ZM242.621 46.0203C243.596 46.0203 244.459 45.7952 245.209 45.345C245.985 44.8949 246.597 44.2572 247.047 43.4319C247.523 42.5817 247.76 41.5814 247.76 40.431C247.76 39.2557 247.523 38.2553 247.047 37.4301C246.597 36.6048 245.985 35.9671 245.209 35.517C244.459 35.0669 243.596 34.8418 242.621 34.8418C241.646 34.8418 240.77 35.0669 239.995 35.517C239.22 35.9671 238.607 36.6048 238.157 37.4301C237.707 38.2553 237.482 39.2557 237.482 40.431C237.482 41.5814 237.707 42.5817 238.157 43.4319C238.607 44.2572 239.22 44.8949 239.995 45.345C240.77 45.7952 241.646 46.0203 242.621 46.0203Z"
    fill="url(#simplus-logo-gradient)" />
  <path d="M257.604 50.5216V22.688H263.456V50.5216H257.604Z" fill="url(#simplus-logo-gradient)" />
  <path
    d="M277.402 50.8217C275.727 50.8217 274.226 50.4966 272.901 49.8464C271.6 49.1962 270.588 48.2084 269.862 46.883C269.137 45.5326 268.775 43.8196 268.775 41.7439V30.3404H274.626V40.8812C274.626 42.5567 274.976 43.7946 275.677 44.5948C276.402 45.37 277.415 45.7577 278.715 45.7577C279.615 45.7577 280.416 45.5701 281.116 45.195C281.816 44.7949 282.366 44.1947 282.766 43.3944C283.167 42.5692 283.367 41.5439 283.367 40.3185V30.3404H289.218V50.5216H283.667V44.9699L284.679 46.5829C284.004 47.9834 283.004 49.0462 281.679 49.7714C280.378 50.4716 278.953 50.8217 277.402 50.8217Z"
    fill="url(#simplus-logo-gradient)" />
  <path
    d="M301.429 50.8217C299.704 50.8217 298.041 50.6217 296.44 50.2215C294.865 49.7964 293.614 49.2713 292.689 48.6461L294.64 44.4448C295.565 45.0199 296.653 45.4951 297.903 45.8702C299.179 46.2203 300.429 46.3954 301.654 46.3954C303.005 46.3954 303.955 46.2328 304.505 45.9077C305.08 45.5826 305.368 45.1325 305.368 44.5573C305.368 44.0821 305.143 43.732 304.693 43.507C304.268 43.2569 303.693 43.0693 302.967 42.9443C302.242 42.8193 301.442 42.6942 300.567 42.5692C299.716 42.4441 298.854 42.2816 297.978 42.0815C297.103 41.8565 296.303 41.5314 295.577 41.1062C294.852 40.6811 294.265 40.1059 293.814 39.3807C293.389 38.6555 293.177 37.7177 293.177 36.5673C293.177 35.2919 293.539 34.1666 294.265 33.1913C295.015 32.216 296.09 31.4532 297.491 30.9031C298.891 30.3279 300.567 30.0403 302.517 30.0403C303.893 30.0403 305.293 30.1903 306.718 30.4904C308.144 30.7905 309.332 31.2282 310.282 31.8033L308.331 35.9671C307.356 35.392 306.368 35.0043 305.368 34.8043C304.393 34.5792 303.442 34.4667 302.517 34.4667C301.217 34.4667 300.266 34.6417 299.666 34.9918C299.066 35.3419 298.766 35.7921 298.766 36.3423C298.766 36.8424 298.979 37.2175 299.404 37.4676C299.854 37.7177 300.441 37.9177 301.167 38.0678C301.892 38.2178 302.68 38.3554 303.53 38.4804C304.405 38.5804 305.28 38.743 306.156 38.9681C307.031 39.1931 307.819 39.5182 308.519 39.9434C309.244 40.3435 309.832 40.9062 310.282 41.6314C310.732 42.3316 310.957 43.2569 310.957 44.4073C310.957 45.6576 310.582 46.7705 309.832 47.7458C309.082 48.6961 307.994 49.4463 306.568 49.9965C305.168 50.5467 303.455 50.8217 301.429 50.8217Z"
    fill="url(#simplus-logo-gradient)" />
  <path d="M244.322 55.8059V54.1449H254.219V55.8059H250.229V66.933H248.305V55.8059H244.322Z"
    fill="url(#simplus-logo-gradient)" />
  <path
    d="M258.905 67.1265C258.006 67.1265 257.221 66.9205 256.551 66.5084C255.881 66.0963 255.36 65.5197 254.99 64.7787C254.619 64.0378 254.434 63.1719 254.434 62.1812C254.434 61.1863 254.619 60.3162 254.99 59.5711C255.36 58.826 255.881 58.2473 256.551 57.8352C257.221 57.4231 258.006 57.2171 258.905 57.2171C259.804 57.2171 260.589 57.4231 261.259 57.8352C261.929 58.2473 262.45 58.826 262.82 59.5711C263.191 60.3162 263.376 61.1863 263.376 62.1812C263.376 63.1719 263.191 64.0378 262.82 64.7787C262.45 65.5197 261.929 66.0963 261.259 66.5084C260.589 66.9205 259.804 67.1265 258.905 67.1265ZM258.911 65.5593C259.494 65.5593 259.977 65.4052 260.36 65.0972C260.743 64.7891 261.026 64.3791 261.209 63.8671C261.396 63.3551 261.49 62.791 261.49 62.1749C261.49 61.563 261.396 61.001 261.209 60.489C261.026 59.9728 260.743 59.5586 260.36 59.2464C259.977 58.9342 259.494 58.7781 258.911 58.7781C258.324 58.7781 257.837 58.9342 257.45 59.2464C257.067 59.5586 256.782 59.9728 256.595 60.489C256.411 61.001 256.32 61.563 256.32 62.1749C256.32 62.791 256.411 63.3551 256.595 63.8671C256.782 64.3791 257.067 64.7891 257.45 65.0972C257.837 65.4052 258.324 65.5593 258.911 65.5593Z"
    fill="url(#simplus-logo-gradient)" />
  <path
    d="M269.5 67.1265C268.601 67.1265 267.816 66.9205 267.146 66.5084C266.475 66.0963 265.955 65.5197 265.585 64.7787C265.214 64.0378 265.029 63.1719 265.029 62.1812C265.029 61.1863 265.214 60.3162 265.585 59.5711C265.955 58.826 266.475 58.2473 267.146 57.8352C267.816 57.4231 268.601 57.2171 269.5 57.2171C270.399 57.2171 271.184 57.4231 271.854 57.8352C272.524 58.2473 273.044 58.826 273.415 59.5711C273.785 60.3162 273.971 61.1863 273.971 62.1812C273.971 63.1719 273.785 64.0378 273.415 64.7787C273.044 65.5197 272.524 66.0963 271.854 66.5084C271.184 66.9205 270.399 67.1265 269.5 67.1265ZM269.506 65.5593C270.089 65.5593 270.572 65.4052 270.955 65.0972C271.338 64.7891 271.621 64.3791 271.804 63.8671C271.991 63.3551 272.085 62.791 272.085 62.1749C272.085 61.563 271.991 61.001 271.804 60.489C271.621 59.9728 271.338 59.5586 270.955 59.2464C270.572 58.9342 270.089 58.7781 269.506 58.7781C268.919 58.7781 268.432 58.9342 268.045 59.2464C267.662 59.5586 267.377 59.9728 267.189 60.489C267.006 61.001 266.915 61.563 266.915 62.1749C266.915 62.791 267.006 63.3551 267.189 63.8671C267.377 64.3791 267.662 64.7891 268.045 65.0972C268.432 65.4052 268.919 65.5593 269.506 65.5593Z"
    fill="url(#simplus-logo-gradient)" />
  <path d="M277.922 54.1449V66.933H276.055V54.1449H277.922Z" fill="url(#simplus-logo-gradient)" />
  <path
    d="M280.583 66.933V54.1449H282.45V58.8967H282.563C282.671 58.6969 282.827 58.4659 283.031 58.2036C283.235 57.9414 283.518 57.7124 283.88 57.5168C284.242 57.317 284.721 57.2171 285.316 57.2171C286.09 57.2171 286.781 57.4127 287.389 57.804C287.997 58.1953 288.474 58.7594 288.819 59.4962C289.169 60.233 289.344 61.1197 289.344 62.1562C289.344 63.1927 289.171 64.0815 288.825 64.8224C288.48 65.5593 288.005 66.1275 287.402 66.5271C286.798 66.9226 286.109 67.1203 285.335 67.1203C284.752 67.1203 284.275 67.0225 283.905 66.8268C283.539 66.6312 283.251 66.4022 283.043 66.14C282.835 65.8777 282.675 65.6446 282.563 65.4406H282.406V66.933H280.583ZM282.413 62.1375C282.413 62.8118 282.51 63.4029 282.706 63.9108C282.902 64.4187 283.185 64.8162 283.555 65.1034C283.926 65.3865 284.38 65.528 284.917 65.528C285.474 65.528 285.941 65.3803 286.315 65.0847C286.69 64.785 286.973 64.3791 287.164 63.8671C287.36 63.3551 287.458 62.7785 287.458 62.1375C287.458 61.5047 287.362 60.9365 287.171 60.4328C286.983 59.9291 286.7 59.5316 286.321 59.2402C285.947 58.9488 285.479 58.8031 284.917 58.8031C284.375 58.8031 283.917 58.9425 283.543 59.2214C283.172 59.5003 282.891 59.8896 282.7 60.3891C282.508 60.8886 282.413 61.4714 282.413 62.1375Z"
    fill="url(#simplus-logo-gradient)" />
  <path
    d="M295.48 67.1265C294.581 67.1265 293.796 66.9205 293.126 66.5084C292.456 66.0963 291.936 65.5197 291.565 64.7787C291.195 64.0378 291.009 63.1719 291.009 62.1812C291.009 61.1863 291.195 60.3162 291.565 59.5711C291.936 58.826 292.456 58.2473 293.126 57.8352C293.796 57.4231 294.581 57.2171 295.48 57.2171C296.379 57.2171 297.164 57.4231 297.834 57.8352C298.504 58.2473 299.025 58.826 299.395 59.5711C299.766 60.3162 299.951 61.1863 299.951 62.1812C299.951 63.1719 299.766 64.0378 299.395 64.7787C299.025 65.5197 298.504 66.0963 297.834 66.5084C297.164 66.9205 296.379 67.1265 295.48 67.1265ZM295.486 65.5593C296.069 65.5593 296.552 65.4052 296.935 65.0972C297.318 64.7891 297.601 64.3791 297.784 63.8671C297.972 63.3551 298.065 62.791 298.065 62.1749C298.065 61.563 297.972 61.001 297.784 60.489C297.601 59.9728 297.318 59.5586 296.935 59.2464C296.552 58.9342 296.069 58.7781 295.486 58.7781C294.899 58.7781 294.412 58.9342 294.025 59.2464C293.642 59.5586 293.357 59.9728 293.17 60.489C292.987 61.001 292.895 61.563 292.895 62.1749C292.895 62.791 292.987 63.3551 293.17 63.8671C293.357 64.3791 293.642 64.7891 294.025 65.0972C294.412 65.4052 294.899 65.5593 295.486 65.5593Z"
    fill="url(#simplus-logo-gradient)" />
  <path
    d="M303.131 57.3419L305.248 61.076L307.383 57.3419H309.425L306.434 62.1375L309.45 66.933H307.408L305.248 63.3488L303.093 66.933H301.045L304.03 62.1375L301.083 57.3419H303.131Z"
    fill="url(#simplus-logo-gradient)" />
</svg>